<?xml version="1.0" ?><svg height="64px" version="1.1" viewBox="0 0 20 32" width="64px" xmlns="http://www.w3.org/2000/svg" xmlns:xlink="http://www.w3.org/1999/xlink">
	<g fill="none" fill-rule="evenodd" id="Page-1" stroke="none" stroke-width="1" transform="matrix(0.7071067,-0.7071068,0.7071068,0.7071067,-5.263458,11.29288)" xmlns="http://www.w3.org/2000/svg">
        <g fill="#7ed321" id="72--Pipe-Extention--(water,-flow)">
            <path d="M13,17 L20,17 L20,16 L13,16 L13,17 Z M21,19 L12,19 C11.448,19 11,18.552 11,18 L11,15 C11,14.448 11.448,14 12,14 L21,14 C21.553,14 22,14.448 22,15 L22,18 C22,18.552 21.553,19 21,19 L21,19 Z" id="Fill-390" />
            <path d="M2,22 L6,22 L6,2 L2,2 L2,22 Z M7,24 L1,24 C0.448,24 0,23.552 0,23 L0,1 C0,0.448 0.448,0 1,0 L7,0 C7.552,0 8,0.448 8,1 L8,23 C8,23.552 7.552,24 7,24 L7,24 Z" id="Fill-392" />
            <path d="M15 14L18 14L18 8C18 6.897 17.103 6 16 6L8 6L8 9L14 9C14.552 9 15 9.448 15 10L15 14ZM19 16L14 16C13.448 16 14 17.052 14 16.5L13 11L7 11C6.448 11 6 10.552 6 10L6 5C6 4.448 6.448 4 7 4L16 4C18.206 4 20 5.794 20 8L20 15C20 15.552 19.552 16 19 16L19 16Z" id="Fill-393" />
        </g>
    </g>
</svg>
